:SAMPLES-PER-SECOND 30
:FULLY-SPECIFIED
:DEGREES
209
root  -40.7675 41.3523 -5.94158 -168.336 -84.1769 166.276
RightUpLeg  1.52037 -8.68676 -7.29184
RightLeg  7.4898 3.33847 2.76978
RightFoot  -4.82395 -0.00469517 -0.491459
RightToes  2.91037e-010 0 -3.6325e-017
Spine  0.423996 0.333809 1.61283
Spine1  15.1832 0.936201 -1.63577
HEad  -15.0753 -0.990172 -0.00649437
LeftShoulder1  9.38237 -13.7029 -47.5934
LeftArm  -6.15889 14.159 -28.1721
LeftForeArm  25.0497 -19.358 -3.93762
LeftHand  -0.244104 0.0205437 5.32207
RightShoulder  6.7392 10.919 40.5555
RightArm  5.59588 -15.7949 36.5213
RightForeArm  -6.65885 13.6676 8.82095
RightHand  -0.581905 -1.00657 -15.3511
LeftUpLeg  0.258885 3.427 -1.164
LeftLeg  1.70052 12.3021 -4.61741
LeftFoot  -0.281914 -0.453736 4.70176
LeftToes  1.46425e-010 1.43544e-010 6.23391e-011
210
root  -40.684 41.3525 -5.97088 -167.284 -84.355 165.231
RightUpLeg  1.35486 -8.70384 -7.27291
RightLeg  7.60559 3.15303 2.74674
RightFoot  -4.82202 -0.00349186 -0.517396
RightToes  2.91037e-010 0 -3.6325e-017
Spine  0.395771 0.333504 1.67551
Spine1  15.0372 0.933934 -1.63721
HEad  -15.1018 -0.78298 -0.052412
LeftShoulder1  9.40131 -13.6995 -47.7005
LeftArm  -6.18959 14.0232 -28.394
LeftForeArm  25.1696 -19.8727 -3.84072
LeftHand  -0.244104 0.0205437 5.32207
RightShoulder  6.70556 10.932 40.2953
RightArm  4.24182 -15.3296 36.1509
RightForeArm  -2.92603 13.1396 8.66718
RightHand  -0.535838 -1.08173 -14.3772
LeftUpLeg  0.146014 3.41704 -1.16571
LeftLeg  1.59597 12.1307 -4.67348
LeftFoot  -0.0375549 -0.467631 4.72491
LeftToes  1.46425e-010 1.43544e-010 6.23391e-011
211
root  -40.6016 41.3554 -6.00481 -166.668 -84.479 164.6
RightUpLeg  1.26082 -8.74954 -7.25898
RightLeg  7.62207 3.05477 2.80615
RightFoot  -4.76518 -0.000559911 -0.579985
RightToes  2.91037e-010 0 -3.6325e-017
Spine  0.290574 0.388147 1.6441
Spine1  15.0278 0.898409 -1.35065
HEad  -14.9805 -0.382007 -0.29526
LeftShoulder1  9.42612 -13.6567 -47.9495
LeftArm  -6.4011 14.0373 -28.6128
LeftForeArm  24.9102 -20.8227 -3.71696
LeftHand  -0.244104 0.0205437 5.32207
RightShoulder  6.60881 10.941 39.6331
RightArm  6.14367 -15.0762 35.7533
RightForeArm  -2.89072 14.1131 8.37388
RightHand  -0.427199 -1.56979 -12.815
LeftUpLeg  0.100935 3.3946 -1.14318
LeftLeg  1.42132 12.0221 -4.69959
LeftFoot  0.205756 -0.475822 4.69133
LeftToes  1.46425e-010 1.43544e-010 6.23391e-011
212
root  -40.5148 41.3605 -6.05099 -166.464 -84.6672 164.281
RightUpLeg  1.34564 -8.81179 -7.22827
RightLeg  7.53949 2.93401 2.92948
RightFoot  -4.6957 0.00352673 -0.663731
RightToes  2.91037e-010 0 -3.6325e-017
Spine  0.359934 0.389671 1.75897
Spine1  14.9823 0.893894 -1.3387
HEad  -14.7077 0.170373 -0.605653
LeftShoulder1  9.31939 -13.5446 -47.7145
LeftArm  -7.35477 14.3098 -29.0329
LeftForeArm  24.2282 -21.9518 -3.66766
LeftHand  -0.244104 0.0205437 5.32207
RightShoulder  6.58273 10.9476 39.4419
RightArm  10.3971 -15.303 34.8956
RightForeArm  -6.11684 17.384 7.20788
RightHand  -0.268264 -2.52501 -10.4611
LeftUpLeg  0.132552 3.37915 -1.06812
LeftLeg  1.31412 11.8426 -4.65826
LeftFoot  0.403322 -0.47102 4.5537
LeftToes  1.46425e-010 1.43544e-010 6.23391e-011
213
root  -40.4138 41.3632 -6.11164 -165.921 -84.9064 163.569
RightUpLeg  1.44647 -8.86507 -7.17882
RightLeg  7.52708 2.76342 3.01191
RightFoot  -4.70146 0.00825721 -0.760564
RightToes  2.91037e-010 0 -3.6325e-017
Spine  0.674811 0.305358 2.00461
Spine1  14.7877 0.918678 -1.69551
HEad  -14.5195 0.803852 -0.705113
LeftShoulder1  8.96969 -13.2452 -46.7232
LeftArm  -9.45032 14.8707 -29.6398
LeftForeArm  23.9183 -23.1375 -3.73588
LeftHand  -0.244104 0.0205437 5.32207
RightShoulder  6.52603 10.7745 39.5913
RightArm  10.7761 -16.1924 33.8495
RightForeArm  -5.23206 22.0444 5.46189
RightHand  -0.187708 -2.62434 -7.60608
LeftUpLeg  0.165661 3.42374 -0.955596
LeftLeg  1.28262 11.5404 -4.65889
LeftFoot  0.564965 -0.462954 4.40341
LeftToes  1.46425e-010 1.43544e-010 6.23391e-011
214
root  -40.299 41.3605 -6.18369 -164.211 -85.0931 161.775
RightUpLeg  1.30671 -8.92831 -7.14868
RightLeg  7.74146 2.62275 3.00887
RightFoot  -4.81215 0.0140389 -0.87668
RightToes  2.91037e-010 0 -3.6325e-017
Spine  0.985118 0.110808 2.07409
Spine1  14.5023 0.809495 -1.98817
HEad  -14.5533 1.61056 -0.55591
LeftShoulder1  8.3724 -12.6658 -45.1216
LeftArm  -11.8633 15.6179 -29.9066
LeftForeArm  24.6638 -24.0904 -3.84994
LeftHand  -0.244104 0.0205437 5.32207
RightShoulder  6.1647 10.2282 38.8064
RightArm  3.14074 -17.2947 33.7809
RightForeArm  2.86522 26.1207 5.39707
RightHand  -0.218816 -1.30684 -6.0638
LeftUpLeg  0.103385 3.465 -0.902179
LeftLeg  1.21407 11.2752 -4.74254
LeftFoot  0.736028 -0.464249 4.33079
LeftToes  1.46425e-010 1.43544e-010 6.23391e-011
215
root  -40.1856 41.3543 -6.2673 -161.618 -85.2332 159.258
RightUpLeg  0.921776 -9.00466 -7.122
RightLeg  8.07216 2.49183 2.98612
RightFoot  -4.95244 0.0222615 -1.03355
RightToes  2.91037e-010 0 -3.6325e-017
Spine  1.05128 -0.214851 1.8627
Spine1  14.1077 0.477244 -2.02804
HEad  -14.4886 2.59451 -0.343766
LeftShoulder1  7.61193 -11.8947 -42.9719
LeftArm  -13.182 16.3919 -29.1676
LeftForeArm  25.7505 -23.9057 -3.76506
LeftHand  -0.244104 0.0205437 5.32207
RightShoulder  5.49878 9.41445 36.5626
RightArm  -5.03224 -17.9473 34.8988
RightForeArm  8.01561 28.3426 5.69787
RightHand  -0.323029 0.0652162 -6.88554
LeftUpLeg  -0.136763 3.36646 -0.957228
LeftLeg  1.14786 11.1915 -4.74481
LeftFoot  0.874074 -0.459364 4.24194
LeftToes  1.46425e-010 1.43544e-010 6.23391e-011
216
root  -40.0881 41.3489 -6.36301 -159.574 -85.3404 157.352
RightUpLeg  0.545899 -9.04634 -7.03882
RightLeg  8.28841 2.34802 3.01028
RightFoot  -5.03643 0.0344016 -1.254
RightToes  2.91037e-010 0 -3.6325e-017
Spine  0.988828 -0.512777 1.59373
Spine1  13.4733 0.13912 -1.97613
HEad  -13.894 3.43045 -0.213325
LeftShoulder1  6.8147 -11.1416 -40.2624
LeftArm  -13.5392 16.9905 -27.2463
LeftForeArm  25.9064 -21.6048 -3.49025
LeftHand  -0.244104 0.0205437 5.32207
RightShoulder  4.84091 8.68318 33.782
RightArm  -10.5404 -17.817 34.9679
RightForeArm  7.80043 27.7121 5.56239
RightHand  -0.426991 0.43277 -8.61649
LeftUpLeg  -0.491597 3.1475 -1.02975
LeftLeg  1.24185 11.2742 -4.55217
LeftFoot  0.864909 -0.430214 3.97284
LeftToes  1.46425e-010 1.43544e-010 6.23391e-011
217
root  -40.0052 41.3462 -6.46178 -159.157 -85.2827 156.944
RightUpLeg  0.379832 -9.04608 -6.92661
RightLeg  8.36616 2.36525 3.07372
RightFoot  -5.06223 0.0487822 -1.51277
RightToes  2.91037e-010 0 -3.6325e-017
Spine  1.0861 -0.500237 1.43378
Spine1  12.6629 0.111987 -1.86463
HEad  -12.8798 3.78135 -0.147556
LeftShoulder1  6.07389 -10.5011 -37.2418
LeftArm  -14.6569 17.1732 -24.4822
LeftForeArm  25.0127 -17.3393 -3.37209
LeftHand  -0.244104 0.0205437 5.32207
RightShoulder  4.33711 8.14671 31.2842
RightArm  -13.3613 -17.222 32.2142
RightForeArm  5.80869 24.8483 5.03109
RightHand  -0.439589 0.115392 -9.3231
LeftUpLeg  -0.712172 2.98871 -1.02288
LeftLeg  1.44919 11.4688 -4.30838
LeftFoot  0.711299 -0.379488 3.55268
LeftToes  1.46425e-010 1.43544e-010 6.23391e-011
218
root  -39.93 41.3424 -6.54962 -159.995 -85.0196 157.587
RightUpLeg  0.398649 -9.06457 -6.85898
RightLeg  8.48212 2.6447 3.14416
RightFoot  -5.09791 0.0602007 -1.73661
RightToes  2.91037e-010 0 -3.6325e-017
Spine  1.37906 -0.165106 1.38197
Spine1  12.0003 0.399706 -1.63318
HEad  -12.0168 3.78121 -0.0194061
LeftShoulder1  5.38859 -9.87343 -34.222
LeftArm  -16.4905 16.9186 -21.2825
LeftForeArm  23.0214 -12.7325 -3.10564
LeftHand  -0.244104 0.0205437 5.32207
RightShoulder  3.82993 7.50613 28.7928
RightArm  -15.2376 -16.485 27.5525
RightForeArm  4.89903 21.0419 4.50618
RightHand  -0.434017 0.0454815 -9.31789
LeftUpLeg  -0.683003 2.97447 -0.945737
LeftLeg  1.67317 11.7195 -4.16407
LeftFoot  0.510754 -0.333837 3.18611
LeftToes  1.46425e-010 1.43544e-010 6.23391e-011
